<mxfile host="app.diagrams.net" modified="2021-10-05T10:22:13.119Z" agent="5.0 (Windows NT 10.0; Win64; x64) AppleWebKit/537.36 (KHTML, like Gecko) Chrome/94.0.4606.61 Safari/537.36" etag="9Wnl-d1MnRWoA8Vibot0" version="15.4.1" type="github">
  <diagram id="-3Mf7pvUGyZ3UgzaagBH" name="Page-1">
    <mxGraphModel dx="1038" dy="1658" grid="1" gridSize="10" guides="1" tooltips="1" connect="1" arrows="1" fold="1" page="1" pageScale="1" pageWidth="827" pageHeight="1169" math="0" shadow="0">
      <root>
        <mxCell id="0" />
        <mxCell id="1" parent="0" />
        <mxCell id="6SlTIPmL1n4rDObzGpwE-1" value="Bus Accident Claims" style="shape=umlFrame;whiteSpace=wrap;html=1;width=60;height=40;" vertex="1" parent="1">
          <mxGeometry x="240" width="300" height="650" as="geometry" />
        </mxCell>
        <mxCell id="6SlTIPmL1n4rDObzGpwE-17" style="edgeStyle=none;rounded=0;orthogonalLoop=1;jettySize=auto;html=1;exitX=0.5;exitY=0.5;exitDx=0;exitDy=0;exitPerimeter=0;endArrow=none;endFill=0;" edge="1" parent="1" source="6SlTIPmL1n4rDObzGpwE-2" target="6SlTIPmL1n4rDObzGpwE-15">
          <mxGeometry relative="1" as="geometry" />
        </mxCell>
        <mxCell id="6SlTIPmL1n4rDObzGpwE-2" value="Third party" style="shape=umlActor;verticalLabelPosition=bottom;verticalAlign=top;html=1;" vertex="1" parent="1">
          <mxGeometry x="170" y="250" width="30" height="60" as="geometry" />
        </mxCell>
        <mxCell id="6SlTIPmL1n4rDObzGpwE-24" style="edgeStyle=none;rounded=0;orthogonalLoop=1;jettySize=auto;html=1;exitX=1;exitY=0.3333333333333333;exitDx=0;exitDy=0;exitPerimeter=0;entryX=0;entryY=0.5;entryDx=0;entryDy=0;endArrow=none;endFill=0;" edge="1" parent="1" source="6SlTIPmL1n4rDObzGpwE-3" target="6SlTIPmL1n4rDObzGpwE-23">
          <mxGeometry relative="1" as="geometry" />
        </mxCell>
        <mxCell id="6SlTIPmL1n4rDObzGpwE-27" style="edgeStyle=none;rounded=0;orthogonalLoop=1;jettySize=auto;html=1;exitX=1;exitY=0.3333333333333333;exitDx=0;exitDy=0;exitPerimeter=0;endArrow=none;endFill=0;entryX=0;entryY=0.5;entryDx=0;entryDy=0;" edge="1" parent="1" source="6SlTIPmL1n4rDObzGpwE-3" target="6SlTIPmL1n4rDObzGpwE-26">
          <mxGeometry relative="1" as="geometry" />
        </mxCell>
        <mxCell id="6SlTIPmL1n4rDObzGpwE-3" value="Assessor" style="shape=umlActor;verticalLabelPosition=bottom;verticalAlign=top;html=1;" vertex="1" parent="1">
          <mxGeometry x="160" y="360" width="30" height="60" as="geometry" />
        </mxCell>
        <mxCell id="6SlTIPmL1n4rDObzGpwE-9" style="rounded=0;orthogonalLoop=1;jettySize=auto;html=1;exitX=0.5;exitY=0.5;exitDx=0;exitDy=0;exitPerimeter=0;entryX=1;entryY=0.5;entryDx=0;entryDy=0;endArrow=none;endFill=0;" edge="1" parent="1" source="6SlTIPmL1n4rDObzGpwE-4" target="6SlTIPmL1n4rDObzGpwE-7">
          <mxGeometry relative="1" as="geometry" />
        </mxCell>
        <mxCell id="6SlTIPmL1n4rDObzGpwE-4" value="Bus Driver" style="shape=umlActor;verticalLabelPosition=bottom;verticalAlign=top;html=1;" vertex="1" parent="1">
          <mxGeometry x="570" y="140" width="30" height="60" as="geometry" />
        </mxCell>
        <mxCell id="6SlTIPmL1n4rDObzGpwE-8" style="rounded=0;orthogonalLoop=1;jettySize=auto;html=1;exitX=0.5;exitY=0.5;exitDx=0;exitDy=0;exitPerimeter=0;endArrow=none;endFill=0;" edge="1" parent="1" source="6SlTIPmL1n4rDObzGpwE-5" target="6SlTIPmL1n4rDObzGpwE-7">
          <mxGeometry relative="1" as="geometry" />
        </mxCell>
        <mxCell id="6SlTIPmL1n4rDObzGpwE-5" value="Bus Passenger" style="shape=umlActor;verticalLabelPosition=bottom;verticalAlign=top;html=1;" vertex="1" parent="1">
          <mxGeometry x="180" y="120" width="30" height="60" as="geometry" />
        </mxCell>
        <mxCell id="6SlTIPmL1n4rDObzGpwE-20" value="Includes" style="edgeStyle=none;rounded=0;orthogonalLoop=1;jettySize=auto;html=1;exitX=0.5;exitY=1;exitDx=0;exitDy=0;entryX=0.5;entryY=0;entryDx=0;entryDy=0;endArrow=classic;endFill=1;dashed=1;" edge="1" parent="1" source="6SlTIPmL1n4rDObzGpwE-7" target="6SlTIPmL1n4rDObzGpwE-19">
          <mxGeometry relative="1" as="geometry" />
        </mxCell>
        <mxCell id="6SlTIPmL1n4rDObzGpwE-7" value="Accident Occurance" style="ellipse;whiteSpace=wrap;html=1;" vertex="1" parent="1">
          <mxGeometry x="320" y="30" width="140" height="50" as="geometry" />
        </mxCell>
        <mxCell id="6SlTIPmL1n4rDObzGpwE-28" style="edgeStyle=none;rounded=0;orthogonalLoop=1;jettySize=auto;html=1;exitX=0;exitY=0.3333333333333333;exitDx=0;exitDy=0;exitPerimeter=0;entryX=1;entryY=0.5;entryDx=0;entryDy=0;endArrow=none;endFill=0;" edge="1" parent="1" source="6SlTIPmL1n4rDObzGpwE-13" target="6SlTIPmL1n4rDObzGpwE-26">
          <mxGeometry relative="1" as="geometry" />
        </mxCell>
        <mxCell id="6SlTIPmL1n4rDObzGpwE-13" value="Underwriting Firm" style="shape=umlActor;verticalLabelPosition=bottom;verticalAlign=top;html=1;" vertex="1" parent="1">
          <mxGeometry x="580" y="370" width="30" height="60" as="geometry" />
        </mxCell>
        <mxCell id="6SlTIPmL1n4rDObzGpwE-16" value="Extends" style="edgeStyle=none;rounded=0;orthogonalLoop=1;jettySize=auto;html=1;exitX=0.5;exitY=0;exitDx=0;exitDy=0;endArrow=classic;endFill=1;dashed=1;" edge="1" parent="1" source="6SlTIPmL1n4rDObzGpwE-15" target="6SlTIPmL1n4rDObzGpwE-7">
          <mxGeometry relative="1" as="geometry" />
        </mxCell>
        <mxCell id="6SlTIPmL1n4rDObzGpwE-15" value="Assess Third party damage" style="ellipse;whiteSpace=wrap;html=1;" vertex="1" parent="1">
          <mxGeometry x="300" y="160" width="110" height="40" as="geometry" />
        </mxCell>
        <mxCell id="6SlTIPmL1n4rDObzGpwE-21" style="edgeStyle=none;rounded=0;orthogonalLoop=1;jettySize=auto;html=1;exitX=0;exitY=0.3333333333333333;exitDx=0;exitDy=0;exitPerimeter=0;endArrow=none;endFill=0;" edge="1" parent="1" source="6SlTIPmL1n4rDObzGpwE-18" target="6SlTIPmL1n4rDObzGpwE-19">
          <mxGeometry relative="1" as="geometry" />
        </mxCell>
        <mxCell id="6SlTIPmL1n4rDObzGpwE-22" style="edgeStyle=none;rounded=0;orthogonalLoop=1;jettySize=auto;html=1;exitX=0;exitY=0.3333333333333333;exitDx=0;exitDy=0;exitPerimeter=0;entryX=1;entryY=0.5;entryDx=0;entryDy=0;endArrow=none;endFill=0;" edge="1" parent="1" source="6SlTIPmL1n4rDObzGpwE-18" target="6SlTIPmL1n4rDObzGpwE-15">
          <mxGeometry relative="1" as="geometry" />
        </mxCell>
        <mxCell id="6SlTIPmL1n4rDObzGpwE-25" style="edgeStyle=none;rounded=0;orthogonalLoop=1;jettySize=auto;html=1;exitX=0;exitY=0.3333333333333333;exitDx=0;exitDy=0;exitPerimeter=0;entryX=1;entryY=0.5;entryDx=0;entryDy=0;endArrow=none;endFill=0;" edge="1" parent="1" source="6SlTIPmL1n4rDObzGpwE-18" target="6SlTIPmL1n4rDObzGpwE-23">
          <mxGeometry relative="1" as="geometry" />
        </mxCell>
        <mxCell id="6SlTIPmL1n4rDObzGpwE-18" value="Claims Section" style="shape=umlActor;verticalLabelPosition=bottom;verticalAlign=top;html=1;" vertex="1" parent="1">
          <mxGeometry x="580" y="270" width="30" height="60" as="geometry" />
        </mxCell>
        <mxCell id="6SlTIPmL1n4rDObzGpwE-19" value="Report Accident" style="ellipse;whiteSpace=wrap;html=1;" vertex="1" parent="1">
          <mxGeometry x="400" y="120" width="110" height="40" as="geometry" />
        </mxCell>
        <mxCell id="6SlTIPmL1n4rDObzGpwE-23" value="Assess claims made" style="ellipse;whiteSpace=wrap;html=1;" vertex="1" parent="1">
          <mxGeometry x="310" y="260" width="140" height="40" as="geometry" />
        </mxCell>
        <mxCell id="6SlTIPmL1n4rDObzGpwE-26" value="Evaluate and Issue Payments" style="ellipse;whiteSpace=wrap;html=1;" vertex="1" parent="1">
          <mxGeometry x="310" y="330" width="140" height="40" as="geometry" />
        </mxCell>
      </root>
    </mxGraphModel>
  </diagram>
</mxfile>
